<svg width="40" height="40" viewBox="0 0 40 40" fill="none" xmlns="http://www.w3.org/2000/svg">
<path d="M30.6667 28C31.0065 28.0004 31.3334 28.1305 31.5805 28.3638C31.8276 28.5971 31.9763 28.916 31.9962 29.2552C32.0161 29.5945 31.9058 29.9285 31.6876 30.1892C31.4695 30.4498 31.1601 30.6172 30.8227 30.6574L30.6667 30.6667H9.33333C8.99349 30.6663 8.66662 30.5362 8.41951 30.3029C8.17239 30.0696 8.02369 29.7508 8.00377 29.4115C7.98385 29.0723 8.09423 28.7382 8.31235 28.4776C8.53047 28.217 8.83987 28.0495 9.17733 28.0094L9.33333 28H30.6667ZM30.6667 18.6667C31.0203 18.6667 31.3594 18.8072 31.6095 19.0572C31.8595 19.3073 32 19.6464 32 20C32 20.3537 31.8595 20.6928 31.6095 20.9429C31.3594 21.1929 31.0203 21.3334 30.6667 21.3334H9.33333C8.97971 21.3334 8.64057 21.1929 8.39052 20.9429C8.14048 20.6928 8 20.3537 8 20C8 19.6464 8.14048 19.3073 8.39052 19.0572C8.64057 18.8072 8.97971 18.6667 9.33333 18.6667H30.6667ZM30.6667 9.33337C31.0203 9.33337 31.3594 9.47385 31.6095 9.7239C31.8595 9.97395 32 10.3131 32 10.6667C32 11.0203 31.8595 11.3595 31.6095 11.6095C31.3594 11.8596 31.0203 12 30.6667 12H9.33333C8.97971 12 8.64057 11.8596 8.39052 11.6095C8.14048 11.3595 8 11.0203 8 10.6667C8 10.3131 8.14048 9.97395 8.39052 9.7239C8.64057 9.47385 8.97971 9.33337 9.33333 9.33337H30.6667Z" fill="#171B4B"/>
</svg>
